<svg xmlns="http://www.w3.org/2000/svg" width="24" height="24" viewBox="0 0 24 24">
  <defs>
    <style>
      .cls-1 {
        fill: #fff;
      }
    </style>
  </defs>
  <path id="联合_532" data-name="联合 532" class="cls-1" d="M49.331,22.861A9.891,9.891,0,0,0,45.666,15.1a3.342,3.342,0,0,1-.362-.272,10.812,10.812,0,0,0-6.279-2.167c-7.167-.12-10.355,4.89-10.355,10.2,0,.661-.049,1.139-.715,1.139S27,23.507,27,22.844h0a12.005,12.005,0,0,1,6.728-10.777,8.1,8.1,0,0,1,.948-.437A6.607,6.607,0,0,1,38.976,0h.048a6.607,6.607,0,0,1,4.3,11.629,8.1,8.1,0,0,1,.948.437A12.005,12.005,0,0,1,51,22.844h0c0,.663-.293,1.156-.955,1.156S49.332,23.522,49.331,22.861ZM33.967,6.61a4.728,4.728,0,0,0,5.057,4.77A4.976,4.976,0,0,0,44.1,6.638a4.782,4.782,0,0,0-5.064-5.062A5.083,5.083,0,0,0,33.967,6.61Z" transform="translate(-27)"/>
</svg>
