<?xml version="1.0" standalone="no"?><!DOCTYPE svg PUBLIC "-//W3C//DTD SVG 1.1//EN" "http://www.w3.org/Graphics/SVG/1.1/DTD/svg11.dtd"><svg t="1591258642366" class="icon" viewBox="0 0 1024 1024" version="1.1" xmlns="http://www.w3.org/2000/svg" p-id="3389" xmlns:xlink="http://www.w3.org/1999/xlink" width="200" height="200"><defs><style type="text/css"></style></defs><path d="M256 448H128c-35.392 0-64 28.608-64 64v320c0 35.392 28.608 64 64 64h128c35.392 0 64-28.608 64-64V512c0-35.392-28.608-64-64-64z m0 384H128V512h128v320z m640-512H768c-35.392 0-64 28.608-64 64v448c0 35.392 28.608 64 64 64h128c35.392 0 64-28.608 64-64V384c0-35.392-28.608-64-64-64z m0 512H768V384h128v448zM576 64H448c-35.392 0-64 28.608-64 64v704c0 35.392 28.608 64 64 64h128c35.392 0 64-28.608 64-64V128c0-35.392-28.608-64-64-64z m0 768H448V128h128v704z" fill="#ffffff" p-id="3390"></path></svg>