<svg xmlns="http://www.w3.org/2000/svg" width="24" height="22" viewBox="0 0 24 22">
  <defs>
    <style>
      .cls-1 {
        fill: #fff;
      }
    </style>
  </defs>
  <path id="路径_2133" data-name="路径 2133" class="cls-1" d="M81.217,118.709H77.788a1.735,1.735,0,0,0-1.714,1.758v8.79a1.735,1.735,0,0,0,1.714,1.758h3.429a1.735,1.735,0,0,0,1.714-1.758v-8.79A1.735,1.735,0,0,0,81.217,118.709Zm.335,10.892h-4.1v-9.477h4.1ZM98.36,109.015H94.931a1.735,1.735,0,0,0-1.714,1.758v18.484a1.735,1.735,0,0,0,1.714,1.758H98.36a1.735,1.735,0,0,0,1.714-1.758V110.773A1.735,1.735,0,0,0,98.36,109.015Zm.335,20.585H94.6V110.43h4.1Zm-8.906-14.936H86.36a1.735,1.735,0,0,0-1.714,1.758v12.834a1.735,1.735,0,0,0,1.714,1.758h3.429a1.735,1.735,0,0,0,1.714-1.758V116.423A1.735,1.735,0,0,0,89.788,114.665Zm.335,14.936h-4.1V116.079h4.1Z" transform="translate(-76.074 -109.015)"/>
</svg>
