<svg xmlns="http://www.w3.org/2000/svg" width="24" height="24" viewBox="0 0 24 24">
  <defs>
    <style>
      .cls-1 {
        fill: #fff;
      }
    </style>
  </defs>
  <path id="路径_2134" data-name="路径 2134" class="cls-1" d="M20.489,8.4A3.56,3.56,0,0,0,17.2,11.177H7.215l5.173-4.815A3.444,3.444,0,0,0,14.4,7,3.522,3.522,0,1,0,11.23,4.969L6.336,9.838a3.516,3.516,0,1,0,.022,4.13l4.929,4.9a3.44,3.44,0,0,0-.386,1.6v0a3.494,3.494,0,1,0,3.5-3.52,3.453,3.453,0,0,0-1.908.57L7.215,12.779H17.2a3.447,3.447,0,0,0,3.292,2.661,3.522,3.522,0,0,0,0-7.044ZM14.6,1.169a2.2,2.2,0,1,1-2.192,2.2,2.2,2.2,0,0,1,2.192-2.2ZM3.617,13.981a2,2,0,1,1,2-2,2,2,0,0,1-2,2Zm12.777,6.4a1.992,1.992,0,1,1-1.992-2A1.995,1.995,0,0,1,16.394,20.384Zm4-6.4a2,2,0,1,1,2-2,2,2,0,0,1-2,2Zm0,0" transform="translate(0 0.038)"/>
</svg>
