<?xml version="1.0" standalone="no"?><!DOCTYPE svg PUBLIC "-//W3C//DTD SVG 1.1//EN" "http://www.w3.org/Graphics/SVG/1.1/DTD/svg11.dtd"><svg t="1591258676083" class="icon" viewBox="0 0 1025 1024" version="1.1" xmlns="http://www.w3.org/2000/svg" p-id="4222" xmlns:xlink="http://www.w3.org/1999/xlink" width="200.1953125" height="200"><defs><style type="text/css"></style></defs><path d="M875.748504 359.348148c-69.025185 0-123.828148 54.423704-140.705185 118.518519H308.376652l221.108148-205.17926a147.531852 147.531852 0 0 0 85.902222 27.306667 150.016 150.016 0 1 0-135.395555-86.660741L270.829985 420.788148a149.921185 149.921185 0 1 0 0.948148 175.976296l210.678519 208.971852a146.223407 146.223407 0 0 0-16.497778 68.077037v0.18963a149.333333 149.333333 0 1 0 149.428148-149.997037 147.911111 147.911111 0 0 0-81.540741 24.272593L308.376652 546.133333h426.666667a147.228444 147.228444 0 0 0 140.705185 113.398519 150.091852 150.091852 0 0 0 0-300.183704zM624.109985 51.38963a93.866667 93.866667 0 1 1-93.677037 93.866666 93.923556 93.923556 0 0 1 93.677037-93.866666zM154.587022 597.333333a85.333333 85.333333 0 1 1 85.522963-85.143703 85.466074 85.466074 0 0 1-85.522963 85.143703z m546.133334 272.877037a85.143704 85.143704 0 1 1-85.143704-85.333333 85.333333 85.333333 0 0 1 85.143704 85.333333zM871.576652 597.333333a85.333333 85.333333 0 1 1 85.522963-85.143703 85.504 85.504 0 0 1-85.522963 85.143703z m0 0" p-id="4223" fill="#ffffff"></path></svg>