<svg xmlns="http://www.w3.org/2000/svg" width="24" height="24" viewBox="0 0 24 24">
  <defs>
    <style>
      .cls-1 {
        fill: #fff;
      }
    </style>
  </defs>
  <path id="路径_2136" data-name="路径 2136" class="cls-1" d="M18.782,15.16c.653,0,.819-.168.819-.827a1.238,1.238,0,0,0-.541-.912l-.052-.053a11.764,11.764,0,0,0-2.955-1.811A6.539,6.539,0,1,0,5.321,6.571,6.587,6.587,0,0,0,7.6,11.557,11.941,11.941,0,0,0,0,22.7H0c0,.659.288,1.148.939,1.148s.7-.475.7-1.132c0-5.272,3.136-10.251,10.184-10.132A10.561,10.561,0,0,1,18,14.74a1.414,1.414,0,0,0,.692.407l.091.013m-6.957-3.851a4.673,4.673,0,0,1-4.973-4.74,5.026,5.026,0,0,1,4.98-5A4.731,4.731,0,0,1,16.812,6.6a4.917,4.917,0,0,1-4.987,4.712m2.168,7.011c0,.659.529.973,1.183.973h7.641c.653,0,1.183-.315,1.183-.973s-.529-.912-1.183-.912H15.176c-.653,0-1.183.251-1.183.912m8.824,3.885H15.176c-.653,0-1.183.235-1.183.893s.529.9,1.183.9h7.641C23.47,24,24,23.76,24,23.1s-.529-.893-1.183-.893m0,0" transform="translate(0)"/>
</svg>
