<?xml version="1.0" standalone="no"?><!DOCTYPE svg PUBLIC "-//W3C//DTD SVG 1.1//EN" "http://www.w3.org/Graphics/SVG/1.1/DTD/svg11.dtd"><svg t="1591258566762" class="icon" viewBox="0 0 1075 1024" version="1.1" xmlns="http://www.w3.org/2000/svg" p-id="2538" xmlns:xlink="http://www.w3.org/1999/xlink" width="209.9609375" height="200"><defs><style type="text/css"></style></defs><path d="M35.41799 974.5408A35.3152 35.3152 0 0 1 0.00039 939.4048v-86.1184a416.9728 416.9728 0 0 1 75.2384-239.4752 426.24 426.24 0 0 1 192.9984-152.896l12.864-5.12-10.9184-8.5248c-61.5424-48-96.7936-119.7568-96.7936-196.8C173.38919 112.384 286.50279 0.0384 425.54919 0.0384s252.16 112.3456 252.16 250.432c0 77.0816-35.2896 148.8384-96.8064 196.8512l-10.9184 8.5248 12.864 5.12a426.24 426.24 0 0 1 192.9856 152.832 417.024 417.024 0 0 1 75.2384 239.552v86.1184a35.3152 35.3152 0 0 1-35.4176 35.136zM425.58759 500.864c-195.6096 0-354.7392 158.1056-354.7392 352.4224v50.9952h709.4144v-50.9952c0-194.3168-159.104-352.4224-354.6752-352.4224z m0-430.6048c-100.0192 0-181.3632 80.8192-181.3632 180.2112s81.344 180.1728 181.3248 180.1728 181.312-80.8576 181.312-180.1728S525.51719 70.2592 425.54919 70.2592z m493.2096 775.0912a437.1712 437.1712 0 0 0-6.9888-70.2464h41.3696v-31.5008c0-121.9712-83.1104-228.0064-202.0864-257.8432l-8.2048-1.9456c-15.1936-5.12-25.3824-18.3424-25.3824-32.8704 0-14.1568 9.472-26.88 24.128-32.3968l0.2432-0.0896 0.2304-0.1024a137.3568 137.3568 0 0 0 81.0496-124.8128c0-58.0736-36.7744-109.3248-91.9168-128.7808a264.7552 264.7552 0 0 0-40.2816-75.136l-2.1504-3.4688c113.4464 1.9456 205.1712 94.2208 205.1712 207.36A206.08 206.08 0 0 1 839.68039 432.64l-6.9888 7.68 9.2288 4.7488A334.4256 334.4256 0 0 1 1024.00039 743.6032v66.56a35.3024 35.3024 0 0 1-35.4048 35.1232h-69.7984z m0 0" p-id="2539" fill="#ffffff"></path></svg>