<svg xmlns="http://www.w3.org/2000/svg" width="24" height="24" viewBox="0 0 24 24">
  <defs>
    <style>
      .cls-1 {
        fill: #fff;
      }
    </style>
  </defs>
  <path id="路径_2128" data-name="路径 2128" class="cls-1" d="M12.7,24.766a11.685,11.685,0,0,1-2.1-.191.665.665,0,1,1,.24-1.308,10.235,10.235,0,0,0,7.042-1.241,10.528,10.528,0,0,0,5.227-10.441,10.6,10.6,0,0,0-3.834-6.867.665.665,0,1,1,.838-1.032,11.832,11.832,0,0,1-1.565,19.489A11.577,11.577,0,0,1,12.7,24.766Zm-7.79-3.129a.665.665,0,0,1-.454-.178A9.964,9.964,0,0,1,2.386,18.8a11.821,11.821,0,0,1,4.38-16.2A11.884,11.884,0,0,1,13.3,1.048a.665.665,0,1,1-.065,1.328,10.567,10.567,0,0,0-10.752,7.8,10.43,10.43,0,0,0,1.076,8,8.653,8.653,0,0,0,1.8,2.313.662.662,0,0,1-.454,1.149ZM12.7,24.9a11.7,11.7,0,0,1-2.12-.194.8.8,0,1,1,.288-1.567,10.1,10.1,0,0,0,6.946-1.225l.007,0A10.393,10.393,0,0,0,22.976,11.6,10.482,10.482,0,0,0,19.19,4.82.8.8,0,1,1,20.2,3.581a11.963,11.963,0,0,1-1.579,19.707A11.709,11.709,0,0,1,12.7,24.9ZM10.718,23.39a.53.53,0,0,0-.095,1.055,11.422,11.422,0,0,0,7.858-1.386A11.72,11.72,0,0,0,24.3,11.436a11.8,11.8,0,0,0-4.272-7.647.532.532,0,1,0-.67.826A10.637,10.637,0,0,1,17.948,22.14h0A10.381,10.381,0,0,1,10.815,23.4.543.543,0,0,0,10.718,23.39ZM4.907,21.77a.8.8,0,0,1-.546-.214A10.094,10.094,0,0,1,2.27,18.868,11.954,11.954,0,0,1,6.7,2.494,12.015,12.015,0,0,1,13.308.914a.8.8,0,1,1-.079,1.593,10.438,10.438,0,0,0-10.619,7.7,10.3,10.3,0,0,0,1.067,7.9A8.516,8.516,0,0,0,5.453,20.39a.792.792,0,0,1,.039,1.127.8.8,0,0,1-.585.254ZM12.7,1.165A11.755,11.755,0,0,0,1.015,14.349,11.565,11.565,0,0,0,2.5,18.738l0,.005a9.8,9.8,0,0,0,2.04,2.619.533.533,0,0,0,.726-.777,8.784,8.784,0,0,1-1.84-2.369A10.627,10.627,0,0,1,7.367,3.644a10.686,10.686,0,0,1,5.877-1.4A.533.533,0,0,0,13.3,1.181q-.3-.015-.591-.016Zm-.658,9.44L9.75,8.165A.792.792,0,0,1,10.922,7.1l2.3,2.439a.8.8,0,0,1-.053,1.119.855.855,0,0,1-1.121-.051Zm.57.367a.933.933,0,0,1-.665-.274l0,0L9.653,8.258A.926.926,0,0,1,11.016,7l0,0,2.294,2.437a.924.924,0,0,1-.053,1.3l-.007.008-.009.007a1.085,1.085,0,0,1-.627.208Zm-.475-.461a.719.719,0,0,0,.94.043.668.668,0,0,0,.044-.922l0,0L10.827,7.191a.66.66,0,0,0-.983.881l0,0Zm.007-.974,2.447-2.287a.8.8,0,0,1,1.121.051.785.785,0,0,1-.051,1.068l-2.447,2.285a.775.775,0,1,1-1.071-1.119Zm.51,1.48A.921.921,0,0,1,12,10.751a.844.844,0,0,1-.243-.662,1.013,1.013,0,0,1,.294-.645l0,0L14.5,7.155a.931.931,0,0,1,1.308.053l.008.008a.918.918,0,0,1-.059,1.247l0,0-2.446,2.285a.921.921,0,0,1-.654.267ZM12.24,9.634a.743.743,0,0,0-.215.471.582.582,0,0,0,.164.457.667.667,0,0,0,.935,0l0,0,2.446-2.285a.654.654,0,0,0,.045-.882.674.674,0,0,0-.929-.047l0,0Zm7.249-6.55,3.467.661a.791.791,0,0,1,.611.914v.051a.8.8,0,0,1-.918.61l-3.467-.661a.791.791,0,0,1-.611-.914V3.694a.8.8,0,0,1,.918-.61ZM22.811,5.42a.745.745,0,0,1-.178-.023l-3.471-.661a.951.951,0,0,1-.542-.375.776.776,0,0,1-.129-.627V3.683l0-.009a.872.872,0,0,1,1.012-.667l3.471.661a.952.952,0,0,1,.542.374.782.782,0,0,1,.129.627v.051l0,.011a.948.948,0,0,1-.376.541.805.805,0,0,1-.458.148ZM19.2,4.581l3.47.661a.624.624,0,0,0,.509-.1.788.788,0,0,0,.31-.441V4.649l0-.009a.618.618,0,0,0-.1-.507.788.788,0,0,0-.449-.311l-3.47-.661a.709.709,0,0,0-.818.542v.051l0,.009a.618.618,0,0,0,.1.507.788.788,0,0,0,.449.311ZM2.1,19.855l3.467.661a.793.793,0,0,1,.613.916v.051a.8.8,0,0,1-.918.61L1.8,21.431a.793.793,0,0,1-.611-.916v-.051a.769.769,0,0,1,.917-.61Zm3.319,2.336a.73.73,0,0,1-.174-.021l-3.471-.661a.873.873,0,0,1-.672-1v-.053a.792.792,0,0,1,.351-.545.832.832,0,0,1,.664-.133l3.47.662a.947.947,0,0,1,.543.375.78.78,0,0,1,.129.627v.051l0,.009a.9.9,0,0,1-.838.69Zm-3.607-.838,3.47.662a.711.711,0,0,0,.818-.543v-.051l0-.009A.618.618,0,0,0,6,20.9a.788.788,0,0,0-.449-.31l-3.47-.662a.67.67,0,0,0-.537.109.634.634,0,0,0-.282.428v.056l0,.009a.707.707,0,0,0,.551.817Zm14.616-9.07H8.934a.7.7,0,0,1-.714-.711v-.152a.7.7,0,0,1,.714-.711h7.495a.7.7,0,0,1,.714.711v.152a.7.7,0,0,1-.714.711Zm0,.133H8.934a.828.828,0,0,1-.846-.845v-.152a.828.828,0,0,1,.846-.845h7.495a.828.828,0,0,1,.848.845v.152a.828.828,0,0,1-.848.845ZM8.934,10.841a.561.561,0,0,0-.581.578v.152a.561.561,0,0,0,.581.579h7.495a.561.561,0,0,0,.581-.579v-.152a.561.561,0,0,0-.581-.579H8.934Zm3.008,6.931V12.13a.7.7,0,0,1,.714-.711h.154a.7.7,0,0,1,.713.711v5.692a.7.7,0,0,1-.713.711h-.2a.77.77,0,0,1-.664-.761Zm.868.894h-.223a.908.908,0,0,1-.777-.894V12.13a.828.828,0,0,1,.846-.845h.154a.828.828,0,0,1,.846.845v5.692a.828.828,0,0,1-.846.845Zm-.195-.264h.195a.561.561,0,0,0,.579-.579V12.13a.561.561,0,0,0-.579-.579h-.154a.561.561,0,0,0-.581.579v5.641a.641.641,0,0,0,.539.63Zm3.814-2.562H8.934a.7.7,0,0,1-.714-.711v-.152a.7.7,0,0,1,.714-.711h7.495a.7.7,0,0,1,.714.711v.152a.7.7,0,0,1-.714.711Zm0,.133H8.934a.828.828,0,0,1-.846-.845v-.152a.828.828,0,0,1,.846-.844h7.495a.828.828,0,0,1,.848.844v.152a.828.828,0,0,1-.848.845ZM8.934,14.4a.561.561,0,0,0-.581.578v.152a.561.561,0,0,0,.581.579h7.495a.561.561,0,0,0,.581-.579v-.152a.561.561,0,0,0-.581-.578H8.934Z" transform="translate(-0.657 -0.898)"/>
</svg>
