<?xml version="1.0" standalone="no"?><!DOCTYPE svg PUBLIC "-//W3C//DTD SVG 1.1//EN" "http://www.w3.org/Graphics/SVG/1.1/DTD/svg11.dtd"><svg t="1591258721282" class="icon" viewBox="0 0 1024 1024" version="1.1" xmlns="http://www.w3.org/2000/svg" p-id="5022" xmlns:xlink="http://www.w3.org/1999/xlink" width="200" height="200"><defs><style type="text/css"></style></defs><path d="M801.394347 646.826667c27.875556 0 34.929778-7.168 34.929777-35.271111 0-16.270222-11.434667-29.582222-23.096888-38.912l-2.218667-2.275556c-38.855111-30.321778-79.416889-59.278222-126.065778-77.255111a281.031111 281.031111 0 0 0 97.052445-212.764445C782.052124 125.553778 657.749902 0 504.491236 0 351.289458 0 227.044124 125.553778 227.044124 280.348444a281.031111 281.031111 0 0 0 97.052445 212.764445A509.496889 509.496889 0 0 0 0.000569 968.590222v0.056889c0.113778 28.103111 12.288 48.981333 40.049778 48.981333 27.932444 0 29.923556-20.252444 29.980444-48.298666 0-224.938667 133.802667-437.361778 434.517333-432.298667 91.249778 1.479111 198.257778 36.977778 263.452445 91.875556 17.692444 14.904889 21.617778 15.075556 29.525333 17.351111l3.868445 0.568889M504.548124 482.531556c-143.303111-0.227556-212.195556-103.765333-212.195555-202.24 0-98.360889 78.734222-213.447111 212.48-213.447112 155.477333 0 212.48 116.337778 212.48 214.641778 0 98.474667-90.453333 204.856889-212.764445 201.045334m92.501334 299.121777c0 28.103111 22.584889 41.528889 50.460444 41.528889h326.030222c27.875556 0 50.460444-13.425778 50.460445-41.528889 0-28.216889-22.584889-38.912-50.460445-38.912h-326.030222c-27.875556 0.056889-50.460444 10.695111-50.460444 38.912m376.490666 165.774223h-326.030222c-27.875556 0-50.460444 10.012444-50.460444 38.115555 0 28.216889 22.584889 38.456889 50.460444 38.456889h326.030222c27.875556 0 50.460444-10.24 50.460445-38.456889 0-28.103111-22.584889-38.115556-50.460445-38.115555m0 0" p-id="5023" fill="#ffffff"></path></svg>